<?xml version="1.0" encoding="UTF-8" standalone="no"?>
<!-- Created with Inkscape (http://www.inkscape.org/) -->

<svg
   width="50mm"
   height="50mm"
   viewBox="0 0 50 50"
   version="1.1"
   id="svg1"
   inkscape:export-filename="256.png"
   inkscape:export-xdpi="130.048"
   inkscape:export-ydpi="130.048"
   inkscape:version="1.3 (0e150ed6c4, 2023-07-21)"
   sodipodi:docname="logo.svg"
   xmlns:inkscape="http://www.inkscape.org/namespaces/inkscape"
   xmlns:sodipodi="http://sodipodi.sourceforge.net/DTD/sodipodi-0.dtd"
   xmlns="http://www.w3.org/2000/svg"
   xmlns:svg="http://www.w3.org/2000/svg">
  <sodipodi:namedview
     id="namedview1"
     pagecolor="#202020"
     bordercolor="#000000"
     borderopacity="0.25"
     inkscape:showpageshadow="2"
     inkscape:pageopacity="0.0"
     inkscape:pagecheckerboard="0"
     inkscape:deskcolor="#d1d1d1"
     inkscape:document-units="mm"
     inkscape:zoom="1.4142136"
     inkscape:cx="47.729708"
     inkscape:cy="21.566757"
     inkscape:window-width="1920"
     inkscape:window-height="1009"
     inkscape:window-x="-8"
     inkscape:window-y="-8"
     inkscape:window-maximized="1"
     inkscape:current-layer="layer2" />
  <defs
     id="defs1" />
  <g
     inkscape:label="Laag 1"
     inkscape:groupmode="layer"
     id="layer1"
     transform="matrix(1.1386395,0,0,1.1386395,-0.33459305,-7.1416596)">
    <path
       d="m 25.000224,31.714188 a 17.5,17.5 0 0 0 -2.490804,0.178283 17.5,17.5 0 0 0 -2.439645,0.530717 17.5,17.5 0 0 0 -2.339392,0.872299 17.5,17.5 0 0 0 -2.191597,1.196826 17.5,17.5 0 0 0 -1.998845,1.496033 17.5,17.5 0 0 0 -1.765783,1.765783 17.5,17.5 0 0 0 -1.496033,1.998845 A 17.5,17.5 0 0 0 9.081299,41.944571 17.5,17.5 0 0 0 8.209001,44.283963 17.5,17.5 0 0 0 7.678284,46.723608 17.5,17.5 0 0 0 7.5,49.214412 a 17.5,15 0 0 1 0.178284,-2.134754 17.5,15 0 0 1 0.530717,-2.091345 17.5,15 0 0 1 0.872298,-2.005562 17.5,15 0 0 1 1.196826,-1.877922 17.5,15 0 0 1 1.496033,-1.71359 17.5,15 0 0 1 1.765783,-1.513086 17.5,15 0 0 1 1.998845,-1.282609 17.5,15 0 0 1 2.191597,-1.025778 17.5,15 0 0 1 2.339392,-0.747758 17.5,15 0 0 1 2.439645,-0.455269 17.5,15 0 0 1 2.490804,-0.152445 17.5,15 0 0 1 0.858345,0.01809 17.5,15 0 0 1 0.856796,0.05426 17.5,15 0 0 1 0.852661,0.08992 17.5,15 0 0 1 0.845943,0.12609 17.5,15 0 0 1 0.838192,0.161231 17.5,15 0 0 1 0.827856,0.19637 17.5,15 0 0 1 0.815454,0.230994 17.5,15 0 0 1 0.801502,0.264583 17.5,15 0 0 1 0.785481,0.29869 17.5,15 0 0 1 0.766879,0.330729 17.5,15 0 0 1 0.747241,0.362769 17.5,15 0 0 1 0.726054,0.394291 17.5,15 0 0 1 0.702282,0.423746 17.5,15 0 0 1 0.676962,0.453203 17.5,15 0 0 1 0.650606,0.480591 17.5,15 0 0 1 0.621668,0.507979 17.5,15 0 0 1 0.592728,0.532784 17.5,15 0 0 1 0.560689,0.557589 17.5,15 0 0 1 0.52865,0.580326 17.5,15 0 0 1 0.494544,0.60203 17.5,15 0 0 1 0.459403,0.622185 17.5,15 0 0 1 0.42323,0.640271 17.5,15 0 0 1 0.38654,0.657841 17.5,15 0 0 1 0.347782,0.673344 17.5,15 0 0 1 0.309542,0.686779 17.5,15 0 0 1 0.269234,0.699183 17.5,15 0 0 1 0.228927,0.709517 17.5,15 0 0 1 0.188102,0.718302 17.5,15 0 0 1 0.147278,0.725021 17.5,15 0 0 1 0.104903,0.730705 17.5,15 0 0 1 0.06305,0.734322 17.5,15 0 0 1 0.02119,0.736389 17.5,17.5 0 0 0 -0.02119,-0.858863 17.5,17.5 0 0 0 -0.06305,-0.856795 17.5,17.5 0 0 0 -0.104903,-0.852144 17.5,17.5 0 0 0 -0.147278,-0.84646 17.5,17.5 0 0 0 -0.188102,-0.838192 17.5,17.5 0 0 0 -0.228927,-0.827856 17.5,17.5 0 0 0 -0.269234,-0.815454 17.5,17.5 0 0 0 -0.309542,-0.801502 17.5,17.5 0 0 0 -0.347782,-0.784965 17.5,17.5 0 0 0 -0.38654,-0.767395 17.5,17.5 0 0 0 -0.42323,-0.747241 17.5,17.5 0 0 0 -0.459403,-0.726054 17.5,17.5 0 0 0 -0.494544,-0.702283 17.5,17.5 0 0 0 -0.52865,-0.676961 17.5,17.5 0 0 0 -0.560689,-0.65009 17.5,17.5 0 0 0 -0.592728,-0.622184 17.5,17.5 0 0 0 -0.621668,-0.592212 17.5,17.5 0 0 0 -0.650606,-0.561206 17.5,17.5 0 0 0 -0.676962,-0.52865 17.5,17.5 0 0 0 -0.702282,-0.494549 17.5,17.5 0 0 0 -0.726054,-0.459404 17.5,17.5 0 0 0 -0.747241,-0.42323 17.5,17.5 0 0 0 -0.766879,-0.386539 17.5,17.5 0 0 0 -0.785481,-0.347783 17.5,17.5 0 0 0 -0.801502,-0.309025 17.5,17.5 0 0 0 -0.815454,-0.269751 17.5,17.5 0 0 0 -0.827856,-0.228927 17.5,17.5 0 0 0 -0.838192,-0.188102 17.5,17.5 0 0 0 -0.845943,-0.146761 17.5,17.5 0 0 0 -0.852661,-0.10542 17.5,17.5 0 0 0 -0.856796,-0.06304 17.5,17.5 0 0 0 -0.858345,-0.02119 z"
       style="fill:#ffffff;fill-opacity:1;fill-rule:evenodd;stroke-width:0.331022"
       id="path7" />
    <path
       d="m 1.9998779,7.2290161 a 21.428249,24.99964 0 0 1 3.0499431,0.2547649 21.428249,24.99964 0 0 1 2.9874145,0.7580932 21.428249,24.99964 0 0 1 2.8649415,1.2464356 21.428249,24.99964 0 0 1 2.682524,1.7094562 21.428249,24.99964 0 0 1 2.448429,2.137338 21.428249,24.99964 0 0 1 2.161108,2.522326 21.428249,24.99964 0 0 1 1.832447,2.85564 21.428249,24.99964 0 0 1 1.465543,3.130558 21.428249,24.99964 0 0 1 1.068152,3.341915 21.428249,24.99964 0 0 1 0.65009,3.485575 21.428249,24.99964 0 0 1 0.01033,0.08217 21.428249,24.99964 0 0 1 0.0098,0.08217 21.428249,24.99964 0 0 1 0.0093,0.08216 21.428249,24.99964 0 0 1 0.0093,0.08217 21.428249,24.99964 0 0 1 0.0093,0.08268 21.428249,24.99964 0 0 1 0.0088,0.08216 21.428249,24.99964 0 0 1 0.0083,0.08268 21.428249,24.99964 0 0 1 0.0088,0.08216 21.428249,24.99964 0 0 1 0.0078,0.08268 21.428249,24.99964 0 0 1 0.0083,0.08216 21.428249,24.99964 0 0 1 0.0072,0.08268 21.428249,24.99964 0 0 1 0.0078,0.08268 21.428249,24.99964 0 0 1 0.0072,0.08268 21.428249,24.99964 0 0 1 0.0067,0.08268 21.428249,24.99964 0 0 1 0.0067,0.08268 21.428249,24.99964 0 0 1 0.0067,0.08268 21.428249,24.99964 0 0 1 0.0062,0.08268 21.428249,24.99964 0 0 1 0.0057,0.08268 21.428249,24.99964 0 0 1 0.0062,0.08268 21.428249,24.99964 0 0 1 0.0052,0.08268 21.428249,24.99964 0 0 1 0.0057,0.08268 21.428249,24.99964 0 0 1 0.0047,0.0832 21.428249,24.99964 0 0 1 0.0052,0.08268 21.428249,24.99964 0 0 1 0.0046,0.08268 21.428249,24.99964 0 0 1 0.0041,0.0832 21.428249,24.99964 0 0 1 0.0041,0.08268 21.428249,24.99964 0 0 1 0.0041,0.0832 21.428249,24.99964 0 0 1 0.0036,0.08268 21.428249,24.99964 0 0 1 0.0031,0.0832 21.428249,24.99964 0 0 1 0.0031,0.08268 21.428249,24.99964 0 0 1 0.0031,0.0832 21.428249,24.99964 0 0 1 0.0026,0.08268 21.428249,24.99964 0 0 1 0.0026,0.0832 21.428249,24.99964 0 0 1 0.0021,0.08268 21.428249,24.99964 0 0 1 0.0021,0.0832 21.428249,24.99964 0 0 1 0.0021,0.0832 21.428249,24.99964 0 0 1 0.0016,0.08268 21.428249,24.99964 0 0 1 10e-4,0.0832 21.428249,24.99964 0 0 1 0.001,0.08268 21.428249,24.99964 0 0 1 0.001,0.0832 21.428249,24.99964 0 0 1 5.16e-4,0.0832 21.428249,24.99964 0 0 1 5.17e-4,0.08268 21.428249,24.99964 0 0 1 0,0.0832 21.428249,24.99964 0 0 1 0,0.02791 21.428249,24.99964 0 0 1 0,0.0279 21.428249,24.99964 0 0 1 0,0.02791 21.428249,24.99964 0 0 1 -5.17e-4,0.02791 21.428249,24.99964 0 0 1 0,0.0155 17.5,17.5 0 0 1 1.571997,-0.112655 17.5,17.5 0 0 1 0.858346,0.02119 17.5,17.5 0 0 1 0.856795,0.06304 17.5,17.5 0 0 1 0.281637,0.03462 24.99964,24.99964 0 0 0 0.0031,-0.133325 24.99964,24.99964 0 0 0 -0.254764,-3.557923 24.99964,24.99964 0 0 0 -0.758094,-3.485575 24.99964,24.99964 0 0 0 -1.245919,-3.341915 24.99964,24.99964 0 0 0 -1.709973,-3.130558 24.99964,24.99964 0 0 0 -2.13682,-2.85564 A 24.99964,24.99964 0 0 0 18.371488,13.335104 24.99964,24.99964 0 0 0 15.516366,11.197766 24.99964,24.99964 0 0 0 12.385291,9.4883098 24.99964,24.99964 0 0 0 9.0433757,8.2418742 24.99964,24.99964 0 0 0 5.5583171,7.483781 24.99964,24.99964 0 0 0 1.9998779,7.2290161 Z"
       style="fill:#ffffff;fill-opacity:1;fill-rule:evenodd;stroke-width:0.472904"
       id="path17" />
  </g>
  <g
     inkscape:groupmode="layer"
     id="layer2"
     inkscape:label="Laag 2">
    <path
       sodipodi:type="star"
       style="fill:#ffffff;fill-rule:evenodd;stroke-width:0.395999"
       id="path2"
       inkscape:flatsided="false"
       sodipodi:sides="4"
       sodipodi:cx="30.823957"
       sodipodi:cy="5.5562501"
       sodipodi:r1="5.5404787"
       sodipodi:r2="2.4932153"
       sodipodi:arg1="0.98941614"
       sodipodi:arg2="1.7748143"
       inkscape:rounded="0.2"
       inkscape:randomized="0"
       d="M 33.866666,10.186459 C 33.169913,10.644325 31.135257,8.1666755 30.318818,7.9977572 29.502379,7.8288388 26.651615,9.2957111 26.193749,8.5989585 25.735883,7.9022059 28.213532,5.8675494 28.38245,5.0511107 28.551369,4.234672 27.084496,1.3839077 27.781249,0.92604169 28.478002,0.46817568 30.512658,2.9458247 31.329097,3.114743 32.145535,3.2836614 34.9963,1.8167891 35.454166,2.5135417 c 0.457866,0.6967526 -2.019783,2.7314091 -2.188701,3.5478478 -0.168919,0.8164386 1.297953,3.667203 0.601201,4.1250695 z"
       inkscape:transform-center-x="0.74557345"
       inkscape:transform-center-y="-0.62035743"
       transform="matrix(0.65252577,0.41467671,-0.41467671,0.65252577,25.674783,10.851308)" />
    <path
       sodipodi:type="star"
       style="fill:#ffffff;fill-rule:evenodd;stroke-width:0.395999"
       id="path3"
       inkscape:flatsided="false"
       sodipodi:sides="4"
       sodipodi:cx="30.823957"
       sodipodi:cy="5.5562501"
       sodipodi:r1="5.5404787"
       sodipodi:r2="2.4932153"
       sodipodi:arg1="0.98941614"
       sodipodi:arg2="1.7748143"
       inkscape:rounded="0.2"
       inkscape:randomized="0"
       d="M 33.866666,10.186459 C 33.169913,10.644325 31.135257,8.1666755 30.318818,7.9977572 29.502379,7.8288388 26.651615,9.2957111 26.193749,8.5989585 25.735883,7.9022059 28.213532,5.8675494 28.38245,5.0511107 28.551369,4.234672 27.084496,1.3839077 27.781249,0.92604169 28.478002,0.46817568 30.512658,2.9458247 31.329097,3.114743 32.145535,3.2836614 34.9963,1.8167891 35.454166,2.5135417 c 0.457866,0.6967526 -2.019783,2.7314091 -2.188701,3.5478478 -0.168919,0.8164386 1.297953,3.667203 0.601201,4.1250695 z"
       inkscape:transform-center-x="0.97354316"
       inkscape:transform-center-y="-0.81004071"
       transform="matrix(0.8520451,0.5414702,-0.5414702,0.8520451,16.512983,-7.8230212)" />
    <path
       sodipodi:type="star"
       style="fill:#ffffff;fill-rule:evenodd;stroke-width:0.395999"
       id="path4"
       inkscape:flatsided="false"
       sodipodi:sides="4"
       sodipodi:cx="30.823957"
       sodipodi:cy="5.5562501"
       sodipodi:r1="5.5404787"
       sodipodi:r2="2.4932153"
       sodipodi:arg1="0.98941614"
       sodipodi:arg2="1.7748143"
       inkscape:rounded="0.2"
       inkscape:randomized="0"
       d="M 33.866666,10.186459 C 33.169913,10.644325 31.135257,8.1666755 30.318818,7.9977572 29.502379,7.8288388 26.651615,9.2957111 26.193749,8.5989585 25.735883,7.9022059 28.213532,5.8675494 28.38245,5.0511107 28.551369,4.234672 27.084496,1.3839077 27.781249,0.92604169 28.478002,0.46817568 30.512658,2.9458247 31.329097,3.114743 32.145535,3.2836614 34.9963,1.8167891 35.454166,2.5135417 c 0.457866,0.6967526 -2.019783,2.7314091 -2.188701,3.5478478 -0.168919,0.8164386 1.297953,3.667203 0.601201,4.1250695 z"
       inkscape:transform-center-x="0.74557345"
       inkscape:transform-center-y="-0.62035743"
       transform="matrix(0.65252577,0.41467671,-0.41467671,0.65252577,12.644053,-10.844525)" />
  </g>
</svg>
